<svg width="3123" height="603" viewBox="0 0 3123 603" fill="none" xmlns="http://www.w3.org/2000/svg">
<g clip-path="url(#clip0_858_9223)">
<path d="M3083.83 0H39.1658C17.5351 0 0 17.5452 0 39.1882V563.812C0 585.455 17.5351 603 39.1658 603H3083.83C3105.46 603 3123 585.455 3123 563.812V39.1882C3123 17.5452 3105.46 0 3083.83 0Z" fill="#F0EFEF"/>
<path d="M397.62 322.265C405.468 322.265 413.241 321.283 420.787 319.395L423.353 336.762C414.901 338.952 406.223 340.084 397.544 340.009C357.85 340.009 346.38 315.242 346.38 286.172C346.38 257.102 363.812 234.072 397.318 234.072C406.072 234.072 414.674 235.28 423.126 237.546L419.655 254.837C412.562 253.1 405.242 252.269 397.922 252.269C376.867 252.647 366.529 268.201 366.151 286.399C365.774 304.596 373.32 322.265 397.62 322.265Z" fill="#023037"/>
<path d="M478.97 234.148C511.646 234.148 526.135 258.612 526.135 287.003C526.135 315.394 513.608 339.858 478.743 339.858C443.879 339.858 431.578 314.79 431.578 287.003C431.578 259.216 446.218 234.525 478.97 234.148ZM478.97 322.416C499.798 322.416 506.514 305.351 506.514 287.078C506.514 270.391 498.968 251.515 478.743 251.515C458.519 251.515 450.973 270.24 450.973 287.078C450.897 306.106 459.274 322.416 478.97 322.416Z" fill="#023037"/>
<path d="M661.215 338.046V272.732C661.215 256.271 655.103 251.741 644.764 251.741C636.312 252.421 628.313 255.969 622.125 261.708C622.125 263.898 622.653 268.202 622.653 269.259V337.819H602.655V271.977C602.655 255.516 597.75 251.514 587.562 251.514C578.959 252.572 570.809 256.12 564.168 261.708V338.046H543.869V236.338H564.018V244.643C571.564 238.301 580.846 234.601 590.656 233.921C604.843 233.921 613.296 238.678 617.521 246.304C625.898 238.829 636.538 234.525 647.707 233.921C680.987 233.393 681.439 260.047 681.439 271.675V338.423L661.215 338.046Z" fill="#023037"/>
<path d="M820.897 338.046V272.732C820.897 256.271 814.784 251.741 804.37 251.741C795.918 252.421 787.919 255.969 781.731 261.708C781.731 263.898 782.259 268.202 782.259 269.259V337.819H761.884V271.977C761.884 255.516 756.979 251.514 746.791 251.514C738.188 252.572 730.038 256.12 723.322 261.708V338.046H703.475V236.338H723.624V244.643C731.246 238.301 740.754 234.525 750.64 233.921C764.752 233.921 773.279 238.678 777.505 246.304C785.881 238.829 796.522 234.525 807.691 233.921C840.895 233.393 841.423 260.047 841.423 271.675V338.423L820.897 338.046Z" fill="#023037"/>
<path d="M934.998 319.395L938.092 335.931C927.905 338.952 917.34 340.462 906.699 340.462C866.402 340.462 856.591 313.43 856.591 286.474C856.591 259.518 868.59 234.45 902.322 234.45C923.226 234.45 940.583 247.286 940.809 279.754V290.4H876.589C876.589 310.334 887.682 322.491 907.831 322.491C916.962 322.491 926.094 321.509 934.998 319.395ZM877.344 275.148H922.169C921.415 254.535 911.076 250.306 901.492 250.306C886.475 250.08 878.929 260.424 877.344 275.073V275.148Z" fill="#023037"/>
<path d="M1014.76 254.61C1010.46 253.629 1006.09 253.1 1001.71 253.175C992.577 253.024 983.823 257.026 977.937 264.049V338.046H957.864V236.337H977.937V245.398C984.125 238.905 992.653 235.205 1001.56 235.054C1007.29 234.903 1013.03 235.809 1018.46 237.772L1014.76 254.61Z" fill="#023037"/>
<path d="M1073.78 322.265C1081.62 322.265 1089.4 321.283 1097.02 319.395L1099.51 336.762C1091.13 338.952 1082.45 340.084 1073.78 340.009C1034.01 340.009 1022.54 315.243 1022.54 286.172C1022.54 257.102 1039.97 233.921 1073.55 233.921C1082.3 233.921 1090.91 235.13 1099.36 237.395L1095.89 254.686C1088.72 252.949 1081.4 252.119 1074.08 252.119C1053.02 252.496 1042.69 268.051 1042.38 286.248C1042.08 304.445 1049.1 322.265 1073.78 322.265Z" fill="#023037"/>
<path d="M1186.14 319.395L1189.16 335.931C1178.97 338.952 1168.41 340.462 1157.77 340.462C1117.55 340.462 1107.74 313.43 1107.74 286.474C1107.74 259.518 1119.73 234.45 1153.47 234.45C1174.29 234.45 1191.73 247.286 1191.95 279.754V290.4H1127.73C1128.11 310.334 1138.75 322.491 1158.9 322.491C1168.11 322.491 1177.24 321.509 1186.14 319.395ZM1128.41 275.148H1173.24C1172.56 254.535 1162.22 250.306 1152.56 250.306C1137.32 250.08 1130.22 260.424 1128.41 275.073V275.148Z" fill="#023037"/>
<path d="M1260.1 252.647H1232.33V302.104C1232.33 312.449 1233.61 319.698 1244.17 321.132C1250.06 321.51 1255.95 321.283 1261.76 320.453L1263.04 337.819C1257.08 338.725 1251.12 339.103 1245.08 339.103C1221.31 338.197 1212.4 326.04 1212.4 307.012V252.647H1197.69V238.678L1212.4 237.017V213.686H1232.33V236.338H1260.1V253.025V252.647Z" fill="#023037"/>
<path d="M1318.73 234.148C1351.41 234.148 1365.9 258.612 1365.9 287.003C1365.9 315.394 1353.45 339.858 1318.58 339.858C1283.72 339.858 1271.42 314.79 1271.42 287.003C1271.42 259.216 1286.43 234.525 1318.73 234.148ZM1318.73 322.416C1339.64 322.416 1346.35 305.351 1346.35 287.078C1346.35 270.391 1338.81 251.515 1318.58 251.515C1298.36 251.515 1290.81 270.24 1290.81 287.078C1290.81 306.106 1299.19 322.416 1318.73 322.416Z" fill="#023037"/>
<path d="M1427.25 234.148C1459.93 234.148 1474.41 258.612 1474.41 287.003C1474.41 315.394 1461.89 339.858 1427.02 339.858C1392.16 339.858 1379.86 314.79 1379.86 287.003C1379.86 259.216 1394.57 234.525 1427.25 234.148ZM1427.25 322.416C1448.08 322.416 1454.79 305.351 1454.79 287.078C1454.79 270.391 1447.25 251.515 1427.02 251.515C1406.8 251.515 1399.63 270.24 1399.63 287.078C1399.63 306.106 1407.63 322.416 1427.25 322.416Z" fill="#023037"/>
<path d="M1490.19 338.045V199.49H1509.58V338.045H1490.19Z" fill="#023037"/>
<path d="M1530.26 318.263C1539.69 320.754 1549.43 322.265 1559.16 322.642C1567.16 322.642 1575.31 320.981 1575.84 311.392C1576.37 301.802 1565.88 298.102 1553.88 293.043C1540.29 287.456 1525.58 279.83 1525.96 260.953C1525.96 251.514 1531.99 233.091 1562.1 233.921C1571.91 234.223 1581.57 235.582 1591.08 237.923L1587.69 254.686C1579.01 252.496 1570.1 251.137 1561.2 250.835C1552.44 250.835 1546.11 253.553 1545.43 261.708C1545.43 268.654 1550.63 272.279 1564.07 277.715C1577.5 283.152 1596.97 290.552 1596.06 311.996C1595.46 325.587 1586.63 340.462 1559.16 340.084C1547.99 340.009 1536.9 338.348 1526.18 335.176L1530.26 318.263Z" fill="#023037"/>
<path d="M111.611 337.064C109.347 338.196 108.366 340.915 109.423 343.18C109.876 344.162 110.63 344.917 111.611 345.37L199.753 386.748C200.885 387.352 202.244 387.654 203.526 387.654V295.233C202.168 295.233 200.885 295.535 199.678 296.063L111.611 337.064Z" fill="#F47626"/>
<path d="M203.828 295.158V387.352C205.186 387.352 206.545 387.125 207.828 386.521L296.121 345.294C297.705 344.539 298.762 342.878 298.762 341.142C298.762 339.329 297.705 337.744 296.121 336.989L207.677 296.064C206.469 295.535 205.186 295.233 203.828 295.158Z" fill="#F78C27"/>
<path d="M109.196 216.177C109.196 217.989 110.253 219.575 111.838 220.33L199.753 261.708C200.96 262.236 202.243 262.538 203.526 262.538C204.809 262.538 206.092 262.463 207.299 262.01L209.79 260.877L296.045 220.405C298.309 219.348 299.29 216.706 298.233 214.365C297.781 213.383 297.026 212.628 296.045 212.175L207.677 171.024C205.262 169.967 202.545 169.967 200.13 171.024L111.611 212.024C110.102 212.855 109.196 214.44 109.196 216.177Z" fill="#2CBBAA"/>
<path d="M203.828 267.749V295.158C202.47 295.158 201.187 295.46 199.979 295.988L111.611 337.064C110.026 337.819 108.97 339.405 108.97 341.217V216.177C108.97 217.989 110.026 219.575 111.611 220.33L199.753 261.708C200.961 262.237 202.243 262.539 203.526 262.539C204.809 262.539 206.092 262.463 207.299 262.01C204.205 263.294 203.828 264.577 203.828 267.749Z" fill="#D2D2D2"/>
<path d="M693.816 433.184V390.674H701.362V446.021H694.57L666.347 403.586V446.021H658.8V390.674H665.592L693.816 433.184Z" fill="#023037"/>
<path d="M747.848 429.107H717.662C717.964 432.278 719.398 435.299 721.737 437.564C724.001 439.678 726.944 440.735 729.963 440.66C733.962 440.886 737.811 438.847 739.849 435.374H746.867C745.508 438.696 743.32 441.49 740.377 443.529C737.358 445.794 733.661 447.002 729.887 446.927C726.567 446.927 723.322 445.945 720.454 444.208C717.436 442.396 715.021 439.754 713.512 436.658C711.776 433.335 710.87 429.636 710.946 425.936C710.72 422.387 711.399 418.838 712.908 415.591C714.568 412.495 716.983 409.853 719.926 408.041C722.794 406.228 726.039 405.322 729.435 405.322C732.755 405.322 736 406.153 738.792 407.965C741.584 409.702 743.848 412.118 745.433 415.063C747.169 418.158 748.074 421.556 748.15 425.105C748.15 426.464 748.074 427.748 747.848 429.107ZM721.737 414.912C719.398 417.177 717.889 420.273 717.511 423.519H741.509C741.207 420.348 739.849 417.328 737.66 414.987C735.698 412.873 732.981 411.665 730.114 411.665C727.02 411.514 723.926 412.722 721.737 414.912Z" fill="#023037"/>
<path d="M772.751 425.709L786.561 446.021H778.562L768.374 430.542L758.186 446.021H750.64L764.374 425.709L751.395 406.229H758.941L768.449 421.33L777.882 406.229H785.429L772.751 425.709Z" fill="#023037"/>
<path d="M800.22 443.378C797.88 440.66 796.673 437.187 796.899 433.638V412.496H790.108V406.531H793.126C794.409 406.531 795.692 406.153 796.673 405.247C797.578 404.341 798.031 403.057 797.956 401.774V395.809H803.465V406.229H812.52V412.496H803.465V433.411C803.389 435.374 803.917 437.262 805.125 438.772C806.332 439.98 807.993 440.584 809.728 440.509C810.709 440.509 811.615 440.358 812.52 439.98V446.247C811.162 446.7 809.804 446.927 808.37 446.927C805.276 446.927 802.333 445.643 800.22 443.378Z" fill="#023037"/>
<path d="M848.743 459.31C844.366 457.271 841.121 453.421 839.914 448.815H846.781C847.385 450.702 848.743 452.288 850.479 453.194C852.516 454.402 854.856 454.931 857.195 454.855C859.987 454.855 862.704 453.874 864.741 451.986C866.703 449.947 867.76 447.229 867.684 444.435V439.15C864.892 442.699 860.666 444.813 856.138 444.888C852.969 444.888 849.875 443.982 847.158 442.321C844.366 440.584 842.102 438.168 840.593 435.223C838.933 432.203 838.103 428.805 838.178 425.332C838.178 421.859 838.933 418.385 840.593 415.289C842.102 412.42 844.366 409.928 847.083 408.192C849.8 406.455 852.894 405.625 856.063 405.625C858.704 405.625 861.346 406.229 863.609 407.588C865.345 408.569 866.854 409.853 868.062 411.439L869.571 406.455H874.703V444.209C874.854 448.815 873.118 453.27 869.873 456.516C866.402 459.688 861.723 461.349 857.044 461.122C854.176 461.122 851.309 460.518 848.743 459.31ZM862.251 436.658C864.062 435.45 865.496 433.789 866.477 431.825C867.534 429.787 868.137 427.446 868.062 425.105C868.062 422.689 867.534 420.348 866.477 418.234C865.571 416.271 864.062 414.61 862.251 413.402C858.78 411.061 854.252 411.061 850.781 413.402C848.969 414.61 847.536 416.271 846.555 418.234C845.498 420.348 844.894 422.689 844.97 425.105C844.97 427.446 845.498 429.787 846.555 431.825C847.536 433.789 848.969 435.45 850.781 436.658C854.252 438.999 858.78 438.999 862.251 436.658Z" fill="#023037"/>
<path d="M920.585 429.107H890.399C890.701 432.354 892.135 435.299 894.474 437.564C896.663 439.678 899.681 440.735 902.7 440.66C906.699 440.886 910.473 438.847 912.51 435.374H919.604C918.245 438.696 916.057 441.49 913.114 443.529C910.095 445.794 906.397 447.002 902.624 446.927C895.606 446.927 889.192 443 885.947 436.809C884.211 433.486 883.305 429.787 883.381 426.087C883.381 422.387 884.287 418.838 886.022 415.591C887.682 412.495 890.097 409.853 893.04 408.041C895.908 406.228 899.153 405.322 902.549 405.322C905.869 405.322 909.114 406.153 911.906 407.965C914.698 409.702 916.962 412.118 918.472 415.063C920.132 418.158 921.037 421.632 920.962 425.105C920.962 426.464 920.887 427.823 920.585 429.107ZM894.55 414.912C892.135 417.177 890.626 420.273 890.248 423.519H914.246C914.019 420.348 912.661 417.328 910.397 414.987C908.435 412.873 905.718 411.665 902.851 411.665C899.757 411.514 896.738 412.722 894.55 414.912Z" fill="#023037"/>
<path d="M929.112 446.021V406.229H934.244L935.753 411.212C938.394 407.512 942.62 405.398 947.148 405.398C950.016 405.398 952.883 406.153 955.374 407.588C957.788 409.022 959.826 411.212 961.109 413.704C962.543 416.573 963.222 419.669 963.146 422.84V446.021H956.204V423.369C956.355 420.348 955.374 417.404 953.412 415.138C951.525 413.024 948.733 411.892 945.865 412.043C942.998 411.967 940.281 413.1 938.319 415.138C936.357 417.404 935.3 420.348 935.451 423.369V446.021H929.112Z" fill="#023037"/>
<path d="M1008.58 429.107H978.39C978.692 432.278 980.126 435.299 982.465 437.564C984.729 439.678 987.672 440.735 990.691 440.66C994.69 440.886 998.464 438.847 1000.5 435.374H1007.59C1006.24 438.696 1004.05 441.49 1001.1 443.529C998.086 445.794 994.389 447.002 990.615 446.927C983.597 446.927 977.183 443 973.938 436.809C972.202 433.486 971.297 429.787 971.372 426.087C971.372 422.387 972.278 418.838 974.013 415.591C975.674 412.495 978.088 409.853 981.031 408.041C983.899 406.228 987.144 405.322 990.54 405.322C993.86 405.322 997.105 406.153 999.897 407.965C1002.69 409.702 1004.95 412.118 1006.54 415.063C1008.12 418.158 1008.95 421.632 1008.95 425.105C1008.95 426.464 1008.88 427.823 1008.58 429.107ZM982.541 414.912C980.201 417.177 978.692 420.273 978.315 423.519H1002.31C1002.01 420.348 1000.65 417.328 998.464 414.987C996.502 412.873 993.785 411.74 990.917 411.665C987.823 411.514 984.729 412.722 982.541 414.912Z" fill="#023037"/>
<path d="M1017.18 446.021V406.229H1022.31L1023.82 411.212C1024.95 409.626 1026.39 408.267 1028.05 407.286C1029.78 406.002 1031.89 405.398 1034.08 405.398C1035.14 405.247 1036.12 405.247 1037.18 405.398V412.269C1036.2 412.043 1035.14 411.892 1034.08 411.892C1031.21 411.816 1028.5 412.949 1026.54 414.987C1024.5 417.328 1023.52 420.273 1023.67 423.369V446.021H1017.18Z" fill="#023037"/>
<path d="M1065.78 407.361C1068.04 408.645 1069.93 410.532 1071.14 412.798C1072.49 415.214 1073.17 418.008 1073.1 420.801V446.021H1067.97L1066.53 441.037H1066.15C1064.95 442.698 1063.36 444.133 1061.55 445.115C1059.29 446.398 1056.65 447.078 1054.01 446.927C1051.59 446.927 1049.25 446.398 1047.06 445.341C1045.1 444.36 1043.52 442.849 1042.38 441.037C1041.25 439.225 1040.72 437.111 1040.72 434.997C1040.72 432.58 1041.48 430.24 1042.99 428.352C1044.65 426.313 1046.84 424.803 1049.33 423.897C1052.27 422.765 1055.44 422.236 1058.61 422.312H1066.15V420.499C1066.31 418.159 1065.48 415.818 1063.82 414.081C1062.23 412.42 1059.97 411.59 1057.7 411.665C1055.67 411.514 1053.63 412.194 1052.04 413.477C1050.68 414.685 1049.7 416.346 1049.4 418.159H1042.53C1042.84 415.893 1043.59 413.704 1044.87 411.816C1046.16 409.777 1048.04 408.192 1050.16 407.135C1052.5 405.926 1055.06 405.322 1057.7 405.398C1060.49 405.322 1063.29 406.002 1065.78 407.361ZM1063.21 438.017C1065.32 436.054 1066.38 433.336 1066.23 430.466V427.446H1059.21C1056.27 427.295 1053.33 427.899 1050.68 429.334C1048.8 430.315 1047.67 432.278 1047.67 434.393C1047.67 436.129 1048.35 437.79 1049.7 438.923C1051.29 440.131 1053.25 440.735 1055.29 440.584C1058.16 440.811 1061.02 439.905 1063.21 438.017Z" fill="#023037"/>
<path d="M1088.57 443.378C1086.3 440.66 1085.1 437.187 1085.32 433.638V412.496H1078.53V406.531H1081.55C1082.83 406.531 1084.12 406.153 1085.1 405.247C1086 404.341 1086.45 403.057 1086.38 401.774V395.809H1092.11V406.229H1101.17V412.496H1092.11V433.411C1092.04 435.374 1092.57 437.262 1093.77 438.772C1094.98 439.98 1096.64 440.584 1098.38 440.509C1099.36 440.509 1100.26 440.358 1101.17 439.98V446.247C1099.81 446.7 1098.45 446.927 1097.02 446.927C1093.85 447.002 1090.76 445.719 1088.57 443.378Z" fill="#023037"/>
<path d="M1108.64 399.055C1107.81 398.225 1107.43 397.092 1107.43 395.959C1107.43 394.827 1107.81 393.694 1108.64 392.864C1109.47 392.108 1110.53 391.731 1111.66 391.731C1112.79 391.731 1113.92 392.108 1114.83 392.864C1115.66 393.694 1116.11 394.827 1116.04 395.959C1116.04 397.092 1115.58 398.225 1114.75 399.055C1113.92 399.886 1112.79 400.339 1111.66 400.339C1110.53 400.339 1109.4 399.886 1108.64 399.055ZM1115.13 446.021H1108.26V406.228H1115.13V446.021Z" fill="#023037"/>
<path d="M1132.86 444.208C1129.92 442.396 1127.43 439.754 1125.85 436.658C1124.11 433.411 1123.21 429.787 1123.21 426.087C1123.21 422.387 1124.11 418.838 1125.85 415.591C1127.51 412.495 1129.92 409.853 1132.86 408.041C1138.75 404.416 1146.15 404.416 1152.03 408.041C1155.05 409.853 1157.47 412.495 1159.13 415.591C1160.86 418.838 1161.77 422.462 1161.69 426.087C1161.69 429.787 1160.86 433.411 1159.13 436.658C1157.47 439.754 1155.05 442.396 1152.03 444.208C1146.15 447.833 1138.75 447.833 1132.86 444.208ZM1148.64 438.696C1150.6 437.413 1152.11 435.676 1153.16 433.562C1154.3 431.221 1154.9 428.654 1154.82 426.011C1154.9 423.368 1154.37 420.801 1153.16 418.46C1152.11 416.422 1150.6 414.685 1148.64 413.402C1146.83 412.193 1144.64 411.589 1142.45 411.589C1140.26 411.589 1138.07 412.193 1136.26 413.402C1134.3 414.685 1132.79 416.422 1131.73 418.46C1130.53 420.801 1130 423.368 1130.07 426.011C1130.07 428.654 1130.6 431.221 1131.73 433.562C1132.79 435.676 1134.3 437.413 1136.26 438.696C1140.03 441.113 1144.86 441.113 1148.64 438.696Z" fill="#023037"/>
<path d="M1169.99 446.021V406.228H1175.05L1176.56 411.212H1176.94C1178.14 409.551 1179.65 408.192 1181.39 407.21C1183.5 406.002 1185.92 405.322 1188.33 405.398C1191.2 405.398 1194.07 406.153 1196.56 407.587C1199.05 409.022 1201.01 411.136 1202.29 413.704C1203.73 416.573 1204.4 419.669 1204.33 422.84V446.021H1197.46V423.368C1197.61 420.348 1196.56 417.403 1194.59 415.138C1192.71 413.024 1189.92 411.816 1187.05 412.042C1184.18 411.967 1181.46 413.024 1179.5 415.138C1177.46 417.403 1176.41 420.348 1176.56 423.368V446.021H1169.99Z" fill="#023037"/>
<path d="M1241.83 444.208C1238.89 442.396 1236.4 439.754 1234.82 436.658C1233.08 433.411 1232.18 429.787 1232.25 426.087C1232.25 422.462 1233.08 418.838 1234.82 415.591C1236.48 412.495 1238.89 409.853 1241.83 408.041C1244.7 406.228 1248.02 405.322 1251.42 405.322C1254.36 405.322 1257.23 406.002 1259.8 407.436C1262.29 408.871 1264.4 410.759 1266.06 413.099C1267.64 415.365 1268.78 417.932 1269.3 420.65H1262.44C1261.83 418.158 1260.4 415.969 1258.51 414.308C1256.55 412.571 1253.98 411.74 1251.42 411.816C1249.23 411.816 1247.12 412.42 1245.31 413.628C1243.34 414.836 1241.76 416.573 1240.7 418.687C1239.5 421.028 1238.97 423.595 1239.04 426.238C1239.04 428.88 1239.57 431.448 1240.7 433.788C1241.76 435.903 1243.27 437.639 1245.23 438.923C1247.04 440.131 1249.23 440.735 1251.42 440.735C1253.98 440.811 1256.55 439.98 1258.51 438.243C1260.4 436.582 1261.83 434.393 1262.44 431.901H1269.3C1268.78 434.619 1267.64 437.186 1266.06 439.451C1264.4 441.792 1262.29 443.68 1259.8 445.115C1257.23 446.549 1254.36 447.304 1251.42 447.229C1248.02 447.229 1244.7 446.096 1241.83 444.208Z" fill="#023037"/>
<path d="M1284.55 444.208C1281.6 442.396 1279.11 439.754 1277.53 436.658C1275.79 433.411 1274.89 429.787 1274.89 426.087C1274.89 422.387 1275.79 418.838 1277.53 415.591C1279.19 412.495 1281.6 409.853 1284.55 408.041C1290.43 404.416 1297.83 404.416 1303.72 408.041C1306.73 409.853 1309.15 412.495 1310.81 415.591C1312.54 418.838 1313.45 422.462 1313.37 426.087C1313.37 429.787 1312.54 433.411 1310.81 436.658C1309.22 439.754 1306.73 442.396 1303.72 444.208C1297.83 447.833 1290.43 447.833 1284.55 444.208ZM1300.32 438.696C1302.28 437.413 1303.79 435.676 1304.85 433.562C1305.98 431.221 1306.58 428.654 1306.51 426.011C1306.58 423.368 1306.05 420.801 1304.85 418.46C1303.79 416.422 1302.28 414.685 1300.32 413.402C1296.55 410.985 1291.79 410.985 1288.02 413.402C1286.06 414.61 1284.47 416.346 1283.42 418.46C1282.21 420.801 1281.68 423.368 1281.76 426.011C1281.76 428.654 1282.28 431.221 1283.42 433.562C1284.47 435.676 1285.98 437.413 1287.94 438.696C1291.72 441.113 1296.55 441.113 1300.32 438.696Z" fill="#023037"/>
<path d="M1368.46 407.361C1370.58 408.796 1372.24 410.759 1373.29 413.1C1374.5 415.818 1375.1 418.838 1375.03 421.858V446.021H1368.24V422.009C1368.39 419.291 1367.63 416.648 1365.97 414.459C1363.33 411.212 1358.65 410.683 1355.33 413.326C1354.88 413.704 1354.5 414.081 1354.2 414.459C1352.46 416.573 1351.56 419.291 1351.79 422.009V446.021H1344.92V422.009C1345.07 419.291 1344.31 416.648 1342.73 414.459C1341.3 412.722 1339.11 411.74 1336.84 411.816C1334.58 411.816 1332.32 412.798 1330.88 414.534C1329.22 416.648 1328.32 419.367 1328.47 422.085V446.096H1321.68V406.228H1326.73L1328.24 411.212H1328.62C1329.6 409.702 1330.88 408.343 1332.39 407.286C1334.13 406.002 1336.24 405.322 1338.35 405.398C1341.07 405.247 1343.71 406.002 1345.9 407.588C1347.64 408.871 1348.99 410.608 1349.97 412.496C1351.18 410.532 1352.69 408.871 1354.58 407.588C1356.77 406.077 1359.41 405.322 1362.12 405.398C1364.39 405.473 1366.58 406.153 1368.46 407.361Z" fill="#023037"/>
<path d="M1432.23 407.361C1434.34 408.796 1436 410.759 1437.06 413.1C1438.27 415.893 1438.87 418.838 1438.8 421.858V446.021H1432V422.01C1432.15 419.291 1431.4 416.649 1429.74 414.459C1428.31 412.798 1426.19 411.816 1423.93 411.816C1421.59 411.816 1419.33 412.798 1417.89 414.61C1416.16 416.724 1415.33 419.442 1415.48 422.161V446.172H1408.69V422.01C1408.84 419.291 1408.08 416.649 1406.42 414.459C1404.99 412.798 1402.87 411.816 1400.61 411.816C1398.35 411.816 1396.08 412.798 1394.65 414.534C1392.91 416.649 1392.08 419.367 1392.23 422.085V446.096H1385.44V406.229H1390.5L1392.01 411.212C1392.99 409.702 1394.27 408.343 1395.78 407.286C1397.52 406.002 1399.63 405.322 1401.74 405.398C1404.31 405.322 1406.8 406.078 1408.91 407.588C1410.65 408.871 1412.08 410.532 1413.06 412.496C1414.19 410.532 1415.78 408.871 1417.67 407.588C1419.85 406.078 1422.5 405.247 1425.21 405.398C1427.7 405.398 1430.12 406.078 1432.23 407.361Z" fill="#023037"/>
<path d="M1483.92 429.107H1453.74C1454.04 432.278 1455.47 435.299 1457.81 437.564C1460.08 439.678 1463.02 440.811 1466.11 440.66C1470.11 440.811 1473.89 438.772 1475.92 435.374H1482.64C1481.36 438.696 1479.09 441.49 1476.15 443.529C1473.13 445.794 1469.51 447.002 1465.74 446.927C1458.72 446.927 1452.23 443.076 1448.98 436.809C1447.25 433.486 1446.42 429.787 1446.49 426.087C1446.49 422.462 1447.32 418.838 1449.06 415.591C1450.72 412.495 1453.13 409.853 1456.08 408.041C1458.94 406.228 1462.26 405.322 1465.66 405.322C1468.98 405.322 1472.15 406.153 1474.94 407.965C1477.73 409.702 1480.07 412.118 1481.58 415.063C1483.17 418.158 1484 421.632 1484 425.105C1484.15 426.464 1484.07 427.748 1484 429.107H1483.92ZM1457.81 414.912C1455.47 417.252 1453.96 420.273 1453.59 423.519H1477.58C1477.28 420.348 1475.92 417.328 1473.74 414.987C1471.77 412.873 1469.06 411.665 1466.19 411.665C1463.09 411.514 1460 412.722 1457.81 414.912Z" fill="#023037"/>
<path d="M1492.45 446.021V406.229H1497.73L1499.24 411.212H1499.62C1500.75 409.626 1502.19 408.343 1503.85 407.286C1505.66 406.002 1507.77 405.322 1509.96 405.398C1511.01 405.247 1512 405.247 1513.05 405.398V412.269C1512.07 412.043 1511.01 411.892 1509.96 411.892C1507.09 411.816 1504.37 412.873 1502.41 414.987C1500.37 417.253 1499.32 420.273 1499.47 423.369V446.021H1492.45Z" fill="#023037"/>
<path d="M1525.43 444.208C1522.49 442.396 1519.99 439.754 1518.41 436.658C1516.67 433.411 1515.77 429.787 1515.84 426.087C1515.84 422.462 1516.67 418.838 1518.41 415.591C1520.07 412.495 1522.49 409.853 1525.43 408.041C1528.3 406.228 1531.69 405.322 1535.09 405.322C1538.03 405.322 1540.82 406.002 1543.39 407.436C1545.88 408.796 1547.99 410.759 1549.65 413.099C1551.24 415.365 1552.37 417.932 1552.9 420.65H1546.11C1545.43 418.234 1544.07 416.044 1542.18 414.308C1540.22 412.646 1537.65 411.74 1535.09 411.816C1532.9 411.816 1530.71 412.42 1528.9 413.628C1526.94 414.912 1525.43 416.648 1524.37 418.687C1523.16 421.028 1522.56 423.595 1522.64 426.238C1522.56 428.88 1523.16 431.448 1524.37 433.788C1525.43 435.827 1526.94 437.639 1528.82 438.923C1530.86 439.98 1533.2 440.433 1535.46 440.207C1538.03 440.282 1540.6 439.376 1542.56 437.715C1544.45 435.978 1545.8 433.788 1546.48 431.372H1553.27C1552.75 434.09 1551.61 436.658 1550.03 438.923C1548.37 441.264 1546.26 443.227 1543.77 444.586C1541.2 446.021 1538.41 446.776 1535.46 446.7C1531.92 446.851 1528.45 446.021 1525.43 444.208Z" fill="#023037"/>
<path d="M1595.84 429.107H1565.65C1565.95 432.354 1567.46 435.299 1569.8 437.564C1571.99 439.678 1575.01 440.811 1578.03 440.66C1582.03 440.811 1585.8 438.772 1587.84 435.374H1594.86C1593.57 438.697 1591.31 441.49 1588.37 443.529C1585.35 445.794 1581.72 447.002 1577.95 446.927C1574.48 446.927 1571.16 446.021 1568.22 444.209C1565.2 442.396 1562.78 439.829 1561.2 436.658C1559.46 433.336 1558.63 429.636 1558.71 425.936C1558.71 422.312 1559.54 418.687 1561.27 415.44C1562.93 412.345 1565.35 409.702 1568.29 407.89C1571.16 406.077 1574.48 405.171 1577.88 405.171C1581.2 405.171 1584.37 406.002 1587.16 407.814C1590.03 409.551 1592.29 411.967 1593.8 414.912C1595.31 418.083 1595.99 421.556 1595.84 425.105C1595.99 426.464 1595.99 427.748 1595.84 429.107ZM1569.73 414.912C1567.39 417.253 1565.88 420.273 1565.5 423.52H1589.5C1589.2 420.348 1587.84 417.328 1585.65 414.987C1583.69 412.873 1580.97 411.665 1578.1 411.665C1574.93 411.514 1571.91 412.722 1569.65 414.912H1569.73Z" fill="#023037"/>
<path d="M2852.55 241.524V237.617H2835.08V241.524H2841.84V258.266H2845.79V241.524H2852.55ZM2877.91 258.266V237.617H2872.28L2866.08 252.685L2859.88 237.617H2854.8V258.266H2858.75V244.314L2864.95 258.824H2868.33L2874.53 244.314V258.824H2877.91V258.266Z" fill="#17132F"/>
<path d="M1822.77 288.958C1822.77 258.823 1845.88 237.059 1875.19 237.059C1904.5 237.059 1927.6 258.823 1927.6 288.958C1927.6 319.093 1904.5 340.859 1875.19 340.859C1845.88 340.859 1822.77 319.093 1822.77 288.958ZM1875.19 319.093C1891.53 319.093 1903.93 306.817 1903.93 288.958C1903.93 271.1 1891.53 258.823 1875.19 258.823C1858.84 258.823 1846.44 271.1 1846.44 288.958C1846.44 306.817 1858.84 319.093 1875.19 319.093Z" fill="#17132F"/>
<path d="M1978.33 239.292H1990.17V260.498H1980.59C1972.13 260.498 1968.75 263.846 1968.75 272.217V338.068H1945.08V272.775C1945.08 249.895 1956.91 239.292 1978.33 239.292Z" fill="#17132F"/>
<path d="M1996.93 288.959C1996.93 258.265 2019.48 237.617 2046.54 237.617C2058.37 237.617 2069.65 241.523 2076.97 249.336C2076.41 242.081 2076.41 234.826 2076.41 227.014V194.088H2100.08V338.627H2079.23V326.907C2071.9 335.836 2060.06 340.859 2047.1 340.859C2019.48 340.301 1996.93 319.093 1996.93 288.959ZM2049.92 319.093C2065.7 319.093 2078.66 307.932 2078.66 288.959C2078.66 269.985 2066.26 258.823 2049.92 258.823C2033.01 258.823 2020.61 271.101 2020.61 288.959C2020.61 306.817 2033.01 319.093 2049.92 319.093Z" fill="#17132F"/>
<path d="M2118.12 288.958C2118.12 258.823 2140.1 237.059 2168.85 237.059C2195.34 237.059 2219.01 254.916 2216.76 293.424H2140.1C2141.79 309.049 2153.63 320.211 2171.1 320.211C2183.5 320.211 2194.21 314.629 2201.54 304.026L2216.76 316.305C2207.18 330.254 2191.39 340.859 2170.54 340.859C2138.97 340.301 2118.12 319.093 2118.12 288.958ZM2194.77 277.239C2191.96 263.287 2181.81 256.033 2168.85 256.033C2154.76 256.033 2144.05 264.404 2140.66 277.239H2194.77Z" fill="#17132F"/>
<path d="M2268.05 239.292H2279.89V260.498H2270.3C2261.85 260.498 2258.47 263.846 2258.47 272.217V338.068H2234.79V272.775C2235.36 249.895 2246.63 239.292 2268.05 239.292Z" fill="#17132F"/>
<path d="M2312.58 354.809H2335.12C2355.98 354.809 2367.81 346.997 2367.81 329.139V324.675C2361.05 332.486 2350.34 336.951 2337.38 336.951C2309.76 336.951 2287.78 317.42 2287.78 287.842C2287.78 258.264 2310.32 238.174 2337.38 238.174C2350.34 238.174 2362.74 243.197 2370.07 252.126V240.407H2390.92V327.463C2390.92 360.391 2369.5 376.016 2335.12 376.016H2312.58V354.809ZM2339.63 316.302C2355.42 316.302 2368.38 305.7 2368.38 287.842C2368.38 269.984 2355.98 258.823 2339.63 258.823C2322.72 258.823 2310.89 270.542 2310.89 287.284C2310.89 304.026 2322.72 316.302 2339.63 316.302Z" fill="#17132F"/>
<path d="M2445.6 239.292H2457.43V260.498H2447.85C2439.4 260.498 2436.01 263.846 2436.01 272.217V338.068H2412.34V272.775C2412.9 249.895 2424.18 239.292 2445.6 239.292Z" fill="#17132F"/>
<path d="M2630.47 239.292H2655.84L2680.07 307.376L2704.31 239.292H2728.55L2691.35 338.068H2668.24L2630.47 239.292Z" fill="#17132F"/>
<path d="M2732.49 288.958C2732.49 258.823 2754.47 237.059 2783.22 237.059C2809.71 237.059 2833.39 254.916 2831.13 293.424H2754.47C2756.17 309.049 2768 320.211 2785.48 320.211C2797.88 320.211 2808.59 314.629 2815.91 304.026L2831.13 316.305C2821.55 330.254 2805.77 340.859 2784.91 340.859C2753.35 340.301 2732.49 319.093 2732.49 288.958ZM2809.15 277.239C2806.33 263.287 2796.19 256.033 2783.22 256.033C2769.13 256.033 2758.42 264.404 2755.04 277.239H2809.15Z" fill="#17132F"/>
<path d="M2517.18 319.093C2500.84 319.093 2488.43 306.817 2488.43 288.958C2488.43 271.1 2500.84 258.823 2517.18 258.823C2517.74 258.823 2518.87 258.823 2519.44 258.823C2523.38 251.568 2528.45 244.871 2535.22 239.849C2529.58 238.175 2523.38 237.059 2517.18 237.059C2487.87 237.059 2464.76 258.823 2464.76 288.958C2464.76 319.093 2487.87 340.859 2517.18 340.859C2544.24 340.859 2566.22 321.884 2569.04 294.539H2545.36C2543.11 309.606 2531.27 319.093 2517.18 319.093Z" fill="#17132F"/>
<path d="M2575.24 259.381C2591.58 259.381 2603.98 271.658 2603.98 289.516C2603.98 307.373 2591.58 319.652 2575.24 319.652C2574.67 319.652 2573.55 319.652 2572.98 319.652C2569.04 326.907 2563.96 333.604 2557.2 338.627C2562.84 340.3 2569.04 341.415 2575.24 341.415C2604.54 341.415 2627.65 319.652 2627.65 289.516C2627.65 259.381 2604.54 237.616 2575.24 237.616C2548.18 237.616 2526.2 256.59 2523.38 283.936H2547.05C2549.31 268.868 2560.58 259.381 2575.24 259.381Z" fill="#17132F"/>
</g>
<defs>
<clipPath id="clip0_858_9223">
<rect width="3123" height="603" fill="white"/>
</clipPath>
</defs>
</svg>
